<svg width="32" height="32" viewBox="0 0 32 32" fill="none" xmlns="http://www.w3.org/2000/svg">
<path fill-rule="evenodd" clip-rule="evenodd" d="M17.5964 22.7311L20.527 18.468L19.715 17.6533L16.4072 21.6275L17.5964 22.7311Z" fill="#1B35E0"/>
<path fill-rule="evenodd" clip-rule="evenodd" d="M11.4702 18.4792L14.2645 22.9642L15.6081 21.634L12.3085 17.6519L11.4702 18.4792Z" fill="#1B35E0"/>
<path fill-rule="evenodd" clip-rule="evenodd" d="M10.8014 6.69899C10.8114 6.70455 10.8216 6.70999 10.8317 6.71549C11.1123 6.86487 11.4276 6.94643 11.7479 6.94699L11.7553 6.94693C11.7576 6.94693 11.7597 6.94693 11.762 6.94693H12.2781L18.06 6.94437C18.2887 6.92949 18.5072 6.84487 18.6867 6.70549C18.8144 6.59493 18.9308 6.44674 19.0351 6.26012C19.0398 6.25149 19.0458 6.24387 19.0513 6.23587C19.0539 6.23237 19.0559 6.22862 19.0586 6.22518C19.0812 6.19568 19.1087 6.17124 19.1396 6.15255C19.1417 6.15124 19.1441 6.15031 19.1462 6.14906C19.1598 6.1413 19.1739 6.13474 19.1885 6.1293C19.1902 6.12868 19.1916 6.12768 19.1932 6.12705C19.1956 6.12624 19.198 6.12605 19.2003 6.12537C19.2141 6.12087 19.2281 6.11743 19.2425 6.11499C19.2464 6.1143 19.2502 6.11362 19.2542 6.11312C19.2696 6.11118 19.2852 6.11049 19.3009 6.11105C19.3034 6.11112 19.3058 6.11093 19.3082 6.11105C19.327 6.11224 19.3457 6.11462 19.3644 6.11949C19.3822 6.12412 19.3991 6.13074 19.4152 6.13837C19.4159 6.13868 19.4166 6.1388 19.4172 6.13912L21.2219 7.00349V5.78674L18.8904 4.04662C18.8451 4.01274 18.8105 3.96649 18.7909 3.91343C18.7662 3.84668 18.7369 3.78293 18.7038 3.72387C18.6842 3.68887 18.6652 3.65449 18.6463 3.6203C18.3798 3.13762 18.223 2.88574 17.8405 2.88574H9.87305L9.82037 5.03337C9.80837 5.52368 9.99618 5.99299 10.3494 6.3548C10.4831 6.49181 10.6359 6.60718 10.8014 6.69899Z" fill="#1B35E0"/>
<path fill-rule="evenodd" clip-rule="evenodd" d="M19.3921 6.80886C19.3908 6.81086 19.3894 6.81292 19.388 6.81492L19.3797 6.82623C19.3781 6.82836 19.3765 6.83048 19.3749 6.83261C19.2879 6.95011 19.1865 7.05442 19.0749 7.14486C18.7907 7.39379 18.4583 7.52492 18.0899 7.52948C18.0558 7.53154 18.0216 7.53261 17.9873 7.53261L11.7235 7.53298C11.4187 7.53298 11.1124 7.47279 10.8212 7.35679C10.7664 7.69261 10.7664 8.02348 10.7664 8.39179C10.7664 11.0822 12.6512 16.3186 16.1064 16.3186C19.5624 16.3186 21.4477 11.0822 21.4477 8.39179C21.4477 8.16267 21.4138 8.07567 21.3576 7.93148C21.3305 7.86198 21.2988 7.78036 21.2672 7.67467L19.4094 6.78467C19.4037 6.79286 19.398 6.80092 19.3921 6.80886ZM18.2034 13.2009C17.4217 13.6939 16.6895 13.8469 16.0821 13.8469C15.7602 13.8469 15.4734 13.8039 15.2326 13.7458C14.4779 13.5637 14.0059 13.1992 13.9861 13.1838C13.8587 13.0842 13.8362 12.9002 13.9358 12.7727C14.0353 12.6456 14.2189 12.623 14.3462 12.7219C14.4124 12.773 15.9528 13.9279 17.891 12.7054C18.0278 12.6192 18.2086 12.6601 18.2949 12.7969C18.3812 12.9337 18.3402 13.1146 18.2034 13.2009Z" fill="#1B35E0"/>
<path fill-rule="evenodd" clip-rule="evenodd" d="M21.0152 18.7915L17.887 23.3423C17.8509 23.3949 17.7989 23.4338 17.7395 23.4538C17.7197 23.4605 17.6991 23.4652 17.678 23.4675C17.6673 23.4687 17.6566 23.4692 17.646 23.4693C17.646 23.4693 17.6458 23.4693 17.6457 23.4693C17.6454 23.4693 17.6451 23.4692 17.6448 23.4692C17.6283 23.4691 17.612 23.4674 17.5959 23.4646C17.5935 23.4642 17.5911 23.4639 17.5888 23.4634C17.5732 23.4603 17.5581 23.4559 17.5433 23.4503C17.5405 23.4493 17.5378 23.4483 17.535 23.4471C17.5204 23.4411 17.5061 23.4341 17.4926 23.4258C17.4905 23.4245 17.4886 23.4231 17.4865 23.4218C17.4724 23.4126 17.4589 23.4026 17.4464 23.3911L16.0111 22.059L14.4159 23.6384C14.4032 23.6509 14.3893 23.6619 14.3747 23.6718C14.3728 23.6731 14.3709 23.6746 14.3689 23.6758C14.3547 23.6851 14.3397 23.6928 14.3242 23.6995C14.3219 23.7005 14.3196 23.7014 14.3173 23.7023C14.3013 23.7087 14.2849 23.7137 14.2681 23.7171C14.2666 23.7174 14.2652 23.7176 14.2638 23.7179C14.2351 23.7233 14.2055 23.7247 14.1758 23.7211C14.0873 23.7108 14.0084 23.6608 13.9613 23.5851L10.9778 18.7966L9.98714 19.1838L4.66333 21.2884V29.1144H8.36771V24.0448C8.36771 23.883 8.49883 23.7519 8.66058 23.7519C8.82227 23.7519 8.95339 23.883 8.95339 24.0448V29.1144H23.0581V24.0448C23.0581 23.883 23.1893 23.7519 23.351 23.7519C23.5128 23.7519 23.6439 23.883 23.6439 24.0448V29.1144H27.3363V21.2884L21.0152 18.7915ZM16.6171 27.5764H15.3943V26.3595H16.6171V27.5764ZM16.6171 25.7443H15.3943V24.5273H16.6171V25.7443Z" fill="#1B35E0"/>
</svg>
