<svg width="30" height="30" viewBox="0 0 30 30" fill="none" xmlns="http://www.w3.org/2000/svg">
<path d="M25.0002 10.3905C24.836 10.3904 24.6734 10.4227 24.5217 10.4855C24.3699 10.5483 24.232 10.6404 24.1159 10.7565C23.9998 10.8727 23.9077 11.0105 23.8449 11.1623C23.7821 11.314 23.7498 11.4766 23.7499 11.6409V23.7499C23.7495 24.0813 23.6178 24.3991 23.3835 24.6335C23.1492 24.8679 22.8315 24.9998 22.5 25.0002H6.25025C5.91872 24.9999 5.60086 24.8681 5.36643 24.6337C5.132 24.3992 5.00017 24.0814 4.99986 23.7499V7.50005C5.00032 7.16862 5.13223 6.85091 5.36664 6.61661C5.60105 6.38231 5.91882 6.25055 6.25025 6.25024H18.3592C18.5257 6.25385 18.6912 6.22418 18.846 6.16297C19.0008 6.10177 19.1418 6.01026 19.2608 5.89382C19.3798 5.77738 19.4744 5.63836 19.5389 5.48489C19.6034 5.33143 19.6367 5.16663 19.6367 5.00015C19.6367 4.83367 19.6034 4.66886 19.5389 4.5154C19.4744 4.36194 19.3798 4.22291 19.2608 4.10647C19.1418 3.99003 19.0008 3.89852 18.846 3.83732C18.6912 3.77612 18.5257 3.74645 18.3592 3.75005H6.25025C5.75766 3.74959 5.26982 3.84627 4.81464 4.03456C4.35946 4.22285 3.94588 4.49906 3.59756 4.84737C3.24925 5.19568 2.97305 5.60926 2.78476 6.06444C2.59646 6.51962 2.49978 7.00746 2.50025 7.50005V23.7499C2.49978 24.2424 2.59646 24.7303 2.78476 25.1855C2.97305 25.6406 3.24925 26.0542 3.59756 26.4025C3.94588 26.7508 4.35946 27.0271 4.81464 27.2153C5.26982 27.4036 5.75766 27.5003 6.25025 27.4999H22.5C23.4946 27.4999 24.4484 27.1048 25.1517 26.4015C25.855 25.6982 26.25 24.7444 26.25 23.7499V11.6409C26.2501 11.4767 26.2179 11.3141 26.1551 11.1624C26.0923 11.0107 26.0003 10.8729 25.8842 10.7567C25.7681 10.6406 25.6303 10.5485 25.4787 10.4857C25.327 10.4228 25.1644 10.3905 25.0002 10.3905Z" fill="#1B35E0"/>
<path d="M27.1337 2.86639C27.0177 2.75024 26.88 2.6581 26.7284 2.59523C26.5768 2.53236 26.4142 2.5 26.2501 2.5C26.086 2.5 25.9234 2.53236 25.7718 2.59523C25.6202 2.6581 25.4825 2.75024 25.3665 2.86639L12.8661 15.3662C12.75 15.4823 12.658 15.6201 12.5952 15.7717C12.5323 15.9234 12.5 16.0859 12.5 16.2501C12.5 16.4142 12.5323 16.5768 12.5952 16.7284C12.658 16.8801 12.75 17.0179 12.8661 17.134C12.9822 17.25 13.12 17.3421 13.2716 17.4049C13.4233 17.4678 13.5859 17.5001 13.75 17.5001C13.9142 17.5001 14.0767 17.4678 14.2284 17.4049C14.38 17.3421 14.5178 17.25 14.6339 17.134L27.1337 4.63358C27.2498 4.51761 27.342 4.37988 27.4049 4.22826C27.4677 4.07664 27.5001 3.91412 27.5001 3.74999C27.5001 3.58585 27.4677 3.42333 27.4049 3.27171C27.342 3.1201 27.2498 2.98236 27.1337 2.86639Z" fill="#1B35E0"/>
</svg>
