<svg width="30" height="30" viewBox="0 0 30 30" fill="none" xmlns="http://www.w3.org/2000/svg">
<path d="M3.13012 4.70459V19.8358H1.87524V22.1698C1.87524 23.8903 3.27974 25.2948 5.00024 25.2948H25.0002C26.7207 25.2948 28.1252 23.8903 28.1252 22.1698V19.8358H26.7044V4.70459H3.13012ZM4.38012 5.95459H25.4539V7.99559H4.38012V5.95459ZM15.574 10.8765C15.9679 11.0124 16.3618 11.1483 16.7556 11.2842C15.9196 13.6992 15.0941 16.1178 14.2581 18.5327C13.8643 18.3968 13.4704 18.2609 13.0765 18.125C13.9125 15.71 14.738 13.2913 15.574 10.8765ZM11.4944 12.2046C11.8191 12.4658 12.1438 12.727 12.4685 12.9883C12.0085 13.5602 11.5489 14.1325 11.0891 14.7045C11.5489 15.2766 12.0085 15.8489 12.4685 16.4208C12.1438 16.682 11.8191 16.9432 11.4944 17.2045C10.8241 16.3722 10.1565 15.5377 9.48749 14.7045C10.1565 13.8712 10.824 13.0368 11.4944 12.2046ZM18.3425 12.207C19.0091 13.0408 19.6789 13.872 20.3469 14.7045C19.6788 15.5371 19.0091 16.3683 18.3425 17.202C18.0178 16.9408 17.6931 16.6796 17.3684 16.4183C17.8277 15.8473 18.2864 15.2758 18.7454 14.7045C18.2864 14.1332 17.8277 13.5616 17.3684 12.9906C17.6931 12.7294 18.0178 12.4683 18.3425 12.207ZM3.125 21.0864H26.875V22.1704C26.875 23.22 26.0496 24.0454 25 24.0454H5C3.95043 24.0454 3.125 23.22 3.125 22.1704V21.0864Z" fill="#1B35E0"/>
<path d="M13.125 21.8875V23.1375H16.875V21.8875H13.125Z" fill="#1B35E0"/>
</svg>
