<svg width="30" height="30" viewBox="0 0 30 30" fill="none" xmlns="http://www.w3.org/2000/svg">
<path d="M14.3808 2.52743C14.4012 2.5424 14.4166 2.56331 14.4247 2.58731C14.4329 2.61131 14.4335 2.63724 14.4264 2.66158L14.1031 3.65832C14.0963 3.68319 14.0974 3.70956 14.1062 3.73379C14.115 3.75802 14.1311 3.77893 14.1523 3.79364C14.1734 3.80835 14.1987 3.81613 14.2244 3.81592C14.2502 3.81571 14.2753 3.80752 14.2962 3.79247L15.1441 3.17806C15.1655 3.16237 15.1913 3.15391 15.2179 3.15391C15.2444 3.15391 15.2702 3.16237 15.2916 3.17806L16.1381 3.79247C16.1591 3.80752 16.1841 3.81571 16.2099 3.81592C16.2357 3.81613 16.2609 3.80835 16.2821 3.79364C16.3033 3.77893 16.3194 3.75802 16.3282 3.73379C16.337 3.70956 16.3381 3.68319 16.3313 3.65832L16.008 2.66158C16.0013 2.63723 16.0021 2.61142 16.0102 2.5875C16.0183 2.56358 16.0334 2.54265 16.0536 2.52743L16.9028 1.93449C16.9238 1.92079 16.9397 1.90037 16.9476 1.87654C16.9556 1.85272 16.9553 1.8269 16.9468 1.80327C16.9382 1.77964 16.9219 1.7596 16.9005 1.74641C16.8792 1.73321 16.854 1.72763 16.829 1.73058H15.7826C15.7276 1.73058 15.6793 1.67155 15.6632 1.62058L15.3399 0.61311C15.3315 0.588171 15.3154 0.566513 15.294 0.551174C15.2726 0.535836 15.2469 0.527588 15.2205 0.527588C15.1942 0.527588 15.1685 0.535836 15.1471 0.551174C15.1257 0.566513 15.1096 0.588171 15.1011 0.61311L14.7765 1.62863C14.7694 1.65629 14.7543 1.68124 14.733 1.70034C14.7118 1.71943 14.6854 1.73182 14.6571 1.73595H13.6107C13.5858 1.733 13.5606 1.73858 13.5392 1.75177C13.5178 1.76497 13.5015 1.78501 13.493 1.80864C13.4844 1.83226 13.4841 1.85809 13.4921 1.88191C13.5001 1.90573 13.5159 1.92615 13.537 1.93986L14.3808 2.52743Z" fill="#1B35E0"/>
<path d="M24.7869 6.04348C24.769 6.02418 24.7571 6.00001 24.7528 5.97401C24.7485 5.948 24.752 5.92131 24.7628 5.89726L25.239 4.95821C25.2507 4.93456 25.2548 4.90781 25.2505 4.88175C25.2462 4.85569 25.2339 4.83163 25.2152 4.81295C25.1965 4.79428 25.1725 4.78194 25.1464 4.77768C25.1204 4.77341 25.0936 4.77743 25.07 4.78918L24.1309 5.26407C24.1074 5.27585 24.0808 5.27999 24.0548 5.2759C24.0288 5.27181 24.0048 5.2597 23.986 5.24127L23.2455 4.50076C23.2267 4.48213 23.2024 4.46992 23.1762 4.46585C23.1501 4.46178 23.1233 4.46607 23.0996 4.4781C23.076 4.49012 23.0568 4.50929 23.0447 4.53286C23.0326 4.55643 23.0282 4.58322 23.0322 4.60942L23.208 5.65042C23.2114 5.67692 23.2069 5.70385 23.1949 5.72775C23.183 5.75165 23.1641 5.77144 23.1409 5.78457L22.2085 6.25947C22.1851 6.27171 22.1662 6.29099 22.1543 6.3146C22.1424 6.3382 22.1383 6.36493 22.1424 6.39102C22.1466 6.41711 22.1588 6.44124 22.1774 6.45999C22.196 6.47875 22.22 6.4912 22.2461 6.49557L23.279 6.65923C23.3055 6.66302 23.3299 6.67527 23.3488 6.69413C23.3677 6.71299 23.3799 6.73746 23.3837 6.76387L23.5473 7.79817C23.5517 7.82422 23.5642 7.84824 23.5829 7.86684C23.6017 7.88544 23.6258 7.89768 23.6519 7.90183C23.678 7.90598 23.7047 7.90183 23.7283 7.88997C23.7519 7.87811 23.7712 7.85914 23.7835 7.83573L24.2597 6.89668C24.2719 6.87261 24.2916 6.8531 24.3157 6.84103C24.3399 6.82895 24.3672 6.82495 24.3938 6.8296L25.4268 6.99327C25.453 6.9978 25.48 6.99384 25.5038 6.98196C25.5276 6.97008 25.5469 6.95091 25.5591 6.92725C25.5712 6.90358 25.5755 6.87666 25.5712 6.8504C25.567 6.82415 25.5544 6.79994 25.5355 6.78131L24.7869 6.04348Z" fill="#1B35E0"/>
<path d="M29.4418 14.8117L28.4786 14.4884C28.4263 14.4723 28.4223 14.424 28.4223 14.369V13.3226C28.4182 13.2944 28.406 13.2681 28.3873 13.2467C28.3686 13.2253 28.344 13.2097 28.3167 13.2019C28.2893 13.1941 28.2603 13.1944 28.2331 13.2027C28.2059 13.2111 28.1817 13.2271 28.1634 13.2488L27.5329 14.0953C27.5159 14.1175 27.4924 14.1338 27.4657 14.1419C27.439 14.1501 27.4104 14.1497 27.3839 14.1409L26.3845 13.8176C26.3592 13.8092 26.332 13.809 26.3066 13.8171C26.2812 13.8252 26.259 13.8411 26.2432 13.8625C26.2275 13.884 26.2189 13.9099 26.2187 13.9365C26.2185 13.9631 26.2268 13.9891 26.2423 14.0108L26.8567 14.8573C26.8712 14.8792 26.8788 14.9048 26.8788 14.9311C26.8788 14.9573 26.8712 14.9829 26.8567 15.0048L26.241 15.8527C26.2259 15.8736 26.2177 15.8987 26.2175 15.9245C26.2173 15.9503 26.2251 15.9755 26.2398 15.9966C26.2545 16.0178 26.2754 16.0339 26.2997 16.0427C26.3239 16.0515 26.3503 16.0526 26.3751 16.0458L27.3705 15.7225C27.3958 15.7141 27.4231 15.714 27.4485 15.7222C27.4738 15.7304 27.4959 15.7465 27.5114 15.7682L28.158 16.6146C28.1763 16.6364 28.2005 16.6524 28.2277 16.6607C28.2549 16.669 28.284 16.6693 28.3113 16.6615C28.3387 16.6537 28.3632 16.6382 28.3819 16.6168C28.4007 16.5954 28.4128 16.569 28.4169 16.5409V15.4945C28.4169 15.4395 28.4169 15.3912 28.4732 15.3751L29.4525 15.0505C29.4772 15.0409 29.4982 15.0239 29.5126 15.0018C29.527 14.9797 29.5342 14.9536 29.533 14.9272C29.5318 14.9008 29.5223 14.8755 29.506 14.8548C29.4896 14.834 29.4672 14.819 29.4418 14.8117Z" fill="#1B35E0"/>
<path d="M8.08101 6.21667C8.10707 6.21229 8.13109 6.19985 8.14969 6.18109C8.16828 6.16233 8.18052 6.1382 8.18467 6.11212C8.18882 6.08603 8.18468 6.0593 8.17282 6.03569C8.16096 6.01209 8.14198 5.9928 8.11858 5.98056L7.17952 5.50433C7.15531 5.49226 7.13568 5.47265 7.12358 5.44846C7.11148 5.42426 7.10757 5.39679 7.11245 5.37018L7.27611 4.33588C7.27975 4.30979 7.27512 4.28323 7.26289 4.2599C7.25065 4.23658 7.23142 4.21768 7.20789 4.20584C7.18437 4.194 7.15773 4.18983 7.13171 4.1939C7.10569 4.19798 7.0816 4.2101 7.06281 4.22856L6.32231 4.96773C6.3036 4.98667 6.27938 4.99921 6.25312 5.00355C6.22685 5.00789 6.19988 5.0038 6.17608 4.99187L5.23703 4.51564C5.21338 4.5039 5.18664 4.49987 5.16057 4.50414C5.13451 4.5084 5.11045 4.52074 5.09177 4.53941C5.0731 4.55809 5.06076 4.58215 5.0565 4.60821C5.05223 4.63428 5.05626 4.66102 5.068 4.68467L5.54289 5.62372C5.55704 5.64569 5.56377 5.67163 5.56208 5.69771C5.56039 5.72379 5.55037 5.74864 5.5335 5.7686L4.79299 6.50643C4.77437 6.52528 4.76215 6.54952 4.75809 6.5757C4.75402 6.60189 4.7583 6.62869 4.77033 6.6523C4.78236 6.67591 4.80152 6.69514 4.8251 6.70724C4.84867 6.71934 4.87546 6.72371 4.90166 6.71973L5.93595 6.55607C5.96256 6.55119 5.99004 6.55509 6.01423 6.56719C6.03843 6.57929 6.05804 6.59893 6.0701 6.62314L6.54499 7.56219C6.55849 7.58476 6.57871 7.60255 6.60282 7.61306C6.62693 7.62357 6.65372 7.62628 6.67945 7.62081C6.70517 7.61534 6.72855 7.60197 6.74629 7.58255C6.76404 7.56314 6.77527 7.53867 6.77842 7.51256L6.94208 6.4796C6.94607 6.45328 6.95838 6.42892 6.97721 6.41009C6.99604 6.39127 7.02039 6.37896 7.04672 6.37496L8.08101 6.21667Z" fill="#1B35E0"/>
<path d="M3.80308 13.6189C3.81836 13.5973 3.82648 13.5715 3.82631 13.5451C3.82613 13.5187 3.81766 13.493 3.8021 13.4716C3.78653 13.4503 3.76466 13.4344 3.73956 13.4261C3.71446 13.4179 3.68741 13.4177 3.66222 13.4257L2.66683 13.749C2.64154 13.7572 2.6143 13.7572 2.589 13.749C2.5637 13.7408 2.54164 13.7249 2.52597 13.7034L1.93302 12.8569C1.91923 12.8356 1.89863 12.8195 1.87458 12.8114C1.85053 12.8032 1.82443 12.8034 1.80052 12.812C1.7766 12.8205 1.75627 12.8369 1.74282 12.8584C1.72938 12.88 1.7236 12.9054 1.72643 12.9307V13.977C1.72214 14.0052 1.70969 14.0316 1.69062 14.0528C1.67155 14.074 1.6467 14.0892 1.61911 14.0964L0.611645 14.4197C0.586706 14.4282 0.565048 14.4443 0.549709 14.4657C0.534371 14.4871 0.526123 14.5128 0.526123 14.5391C0.526123 14.5655 0.534371 14.5912 0.549709 14.6126C0.565048 14.634 0.586706 14.65 0.611645 14.6585L1.62582 14.9832C1.65332 14.9903 1.67807 15.0055 1.69694 15.0268C1.71581 15.048 1.72794 15.0744 1.7318 15.1026V16.1489C1.72897 16.1742 1.73474 16.1996 1.74819 16.2212C1.76164 16.2427 1.78197 16.2591 1.80588 16.2676C1.8298 16.2762 1.8559 16.2764 1.87995 16.2682C1.904 16.2601 1.92459 16.244 1.93839 16.2227L2.54207 15.3762C2.55633 15.355 2.57719 15.339 2.60143 15.3307C2.62567 15.3225 2.65195 15.3225 2.67622 15.3306L3.66893 15.6539C3.6938 15.6607 3.72017 15.6596 3.7444 15.6508C3.76863 15.642 3.78954 15.6259 3.80425 15.6047C3.81895 15.5835 3.82674 15.5583 3.82653 15.5325C3.82632 15.5068 3.81813 15.4817 3.80308 15.4607L3.18733 14.6129C3.17163 14.5915 3.16317 14.5657 3.16317 14.5391C3.16317 14.5126 3.17163 14.4867 3.18733 14.4654L3.80308 13.6189Z" fill="#1B35E0"/>
<path d="M21.8381 15.0518C21.783 13.8738 21.4228 12.7303 20.7928 11.7334C20.1628 10.7366 19.2846 9.92047 18.2442 9.36513C18.0819 9.27793 17.9156 9.1961 17.7452 9.12232C16.7425 8.68721 15.6496 8.50066 14.5594 8.57853C13.4692 8.6564 12.4139 8.99638 11.4832 9.56957C10.5526 10.1428 9.77413 10.9322 9.21403 11.8708C8.65392 12.8094 8.32875 13.8693 8.26615 14.9605H8.29432V14.9726C8.29432 15.1068 8.26213 15.7104 8.26213 15.7104L8.12798 15.9519H8.80543C8.92294 15.5922 9.13741 15.2719 9.42524 15.0263C9.71306 14.7806 10.0631 14.6191 10.4368 14.5596C10.8105 14.5001 11.1933 14.5448 11.5432 14.6889C11.8931 14.8329 12.1965 15.0707 12.42 15.3761C12.6434 15.6815 12.7783 16.0426 12.8097 16.4197C12.8411 16.7968 12.7679 17.1753 12.5981 17.5134C12.4283 17.8516 12.1685 18.1363 11.8472 18.3363C11.526 18.5363 11.1558 18.6438 10.7774 18.647C10.2603 18.6503 9.76128 18.4566 9.38179 18.1053C9.0023 17.754 8.7708 17.2713 8.73433 16.7555H7.92943C7.91274 16.7545 7.89614 16.7523 7.8798 16.7488L7.02929 19.1339C7.00294 19.2122 6.995 19.2954 7.00608 19.3772C7.01716 19.459 7.04696 19.5372 7.09317 19.6056C7.13938 19.674 7.20074 19.7308 7.2725 19.7716C7.34425 19.8124 7.42445 19.8362 7.50686 19.8409H8.23932V23.6105C8.23983 23.787 8.27538 23.9615 8.3439 24.1241C8.41242 24.2866 8.51255 24.434 8.63848 24.5575C8.7644 24.6811 8.91362 24.7784 9.07746 24.8438C9.2413 24.9092 9.4165 24.9415 9.5929 24.9386H12.0559V28.4802C12.0695 28.7531 12.1868 29.0105 12.3837 29.2C12.5806 29.3895 12.8424 29.4966 13.1157 29.4997H19.3416C19.6124 29.4973 19.8716 29.3895 20.0642 29.1992C20.2568 29.0088 20.3676 28.7509 20.3732 28.4802V21.33C20.3764 20.3566 20.6173 19.3988 21.0748 18.5397C21.5634 17.6119 21.8289 16.583 21.8502 15.5347C21.8502 15.481 21.8502 15.4247 21.8502 15.3697C21.8489 15.2624 21.8435 15.1591 21.8381 15.0518ZM15.1467 14.6091H14.6101V15.1309C14.6101 15.2376 14.5677 15.34 14.4922 15.4155C14.4168 15.491 14.3144 15.5334 14.2077 15.5334C14.1009 15.5334 13.9986 15.491 13.9231 15.4155C13.8476 15.34 13.8052 15.2376 13.8052 15.1309V14.6091H13.2686C13.1619 14.6091 13.0595 14.5667 12.984 14.4912C12.9086 14.4157 12.8662 14.3133 12.8662 14.2066C12.8662 14.0999 12.9086 13.9975 12.984 13.922C13.0595 13.8466 13.1619 13.8042 13.2686 13.8042H13.8052V13.2515C13.8052 13.1447 13.8476 13.0424 13.9231 12.9669C13.9986 12.8914 14.1009 12.849 14.2077 12.849C14.3144 12.849 14.4168 12.8914 14.4922 12.9669C14.5677 13.0424 14.6101 13.1447 14.6101 13.2515V13.8042H15.1467C15.2534 13.8042 15.3558 13.8466 15.4313 13.922C15.5068 13.9975 15.5492 14.0999 15.5492 14.2066C15.5492 14.3133 15.5068 14.4157 15.4313 14.4912C15.3558 14.5667 15.2534 14.6091 15.1467 14.6091Z" fill="#1B35E0"/>
<path d="M11.7058 17.5361C11.9199 17.3215 12.053 17.0393 12.0824 16.7376C12.1118 16.4359 12.0357 16.1333 11.8671 15.8814C11.6985 15.6295 11.4477 15.4438 11.1576 15.356C10.8674 15.2682 10.5558 15.2837 10.2758 15.3998C9.99582 15.5159 9.76472 15.7255 9.62189 15.9929C9.47906 16.2603 9.43333 16.5689 9.49249 16.8662C9.55165 17.1635 9.71203 17.4311 9.94634 17.6235C10.1806 17.8158 10.4744 17.921 10.7775 17.9211C10.95 17.9211 11.1207 17.8871 11.28 17.821C11.4393 17.7549 11.584 17.6581 11.7058 17.5361Z" fill="#1B35E0"/>
</svg>
