<svg width="30" height="30" viewBox="0 0 30 30" fill="none" xmlns="http://www.w3.org/2000/svg">
<path d="M2.5 12.5V23.75C2.50076 24.7443 2.89609 25.6977 3.59919 26.4008C4.30229 27.1039 5.25567 27.4992 6.25 27.5H23.75C24.7443 27.4992 25.6977 27.1039 26.4008 26.4008C27.1039 25.6977 27.4992 24.7443 27.5 23.75V12.5H2.5ZM20.2588 17.7588L14.6338 23.3838C14.5177 23.4999 14.3799 23.592 14.2283 23.6548C14.0767 23.7177 13.9141 23.75 13.75 23.75C13.5858 23.75 13.4233 23.7177 13.2716 23.6548C13.12 23.592 12.9822 23.4999 12.8662 23.3838L9.74119 20.2588C9.50679 20.0244 9.37511 19.7065 9.37511 19.375C9.37511 19.0435 9.50679 18.7256 9.74119 18.4912C9.97559 18.2568 10.2935 18.1251 10.625 18.1251C10.9565 18.1251 11.2744 18.2568 11.5088 18.4912L13.75 20.7324L18.4912 15.9913C18.6071 15.8747 18.7449 15.7822 18.8967 15.719C19.0485 15.6558 19.2112 15.6232 19.3756 15.623C19.54 15.6228 19.7028 15.655 19.8547 15.7178C20.0066 15.7807 20.1447 15.8728 20.2609 15.9891C20.3771 16.1053 20.4693 16.2433 20.5321 16.3952C20.5949 16.5472 20.6272 16.71 20.627 16.8744C20.6268 17.0388 20.5942 17.2015 20.531 17.3533C20.4678 17.505 20.3753 17.6428 20.2588 17.7588Z" fill="#1B35E0"/>
<path d="M23.75 3.125V3.75002C23.75 4.74458 23.3549 5.69841 22.6516 6.40167C21.9484 7.10493 20.9945 7.50002 20 7.50002C19.0054 7.50002 18.0516 7.10493 17.3483 6.40167C16.645 5.69841 16.25 4.74458 16.25 3.75002V3.125H13.75V3.75002C13.75 4.74458 13.3549 5.69841 12.6516 6.40167C11.9484 7.10493 10.9946 7.50002 10 7.50002C9.00544 7.50002 8.05161 7.10493 7.34835 6.40167C6.64509 5.69841 6.25 4.74458 6.25 3.75002V3.125C5.25568 3.12578 4.3023 3.52111 3.59921 4.22421C2.89611 4.9273 2.50078 5.88068 2.5 6.875V10H27.5V6.875C27.4992 5.88068 27.1038 4.9273 26.4008 4.22421C25.6977 3.52111 24.7443 3.12578 23.75 3.125Z" fill="#1B35E0"/>
<path d="M21.25 2.50005V3.75003C21.2478 4.08007 21.1151 4.39583 20.8809 4.62841C20.6467 4.86099 20.3301 4.99151 20 4.99151C19.67 4.99151 19.3533 4.86099 19.1192 4.62841C18.885 4.39583 18.7523 4.08007 18.75 3.75003V2.50005C18.7489 2.33518 18.7804 2.17171 18.8427 2.01906C18.905 1.86641 18.9969 1.7276 19.1131 1.61061C19.2293 1.49363 19.3675 1.40079 19.5197 1.33743C19.6719 1.27407 19.8352 1.24146 20 1.24146C20.1649 1.24146 20.3282 1.27407 20.4804 1.33743C20.6326 1.40079 20.7708 1.49363 20.887 1.61061C21.0032 1.7276 21.0951 1.86641 21.1574 2.01906C21.2197 2.17171 21.2512 2.33518 21.25 2.50005Z" fill="#1B35E0"/>
<path d="M11.25 2.50005V3.75003C11.2478 4.08007 11.1151 4.39583 10.8809 4.62841C10.6467 4.86099 10.3301 4.99151 10 4.99151C9.66999 4.99151 9.35334 4.86099 9.11916 4.62841C8.88498 4.39583 8.75229 4.08007 8.75003 3.75003V2.50005C8.7489 2.33518 8.7804 2.17171 8.84271 2.01906C8.90503 1.86641 8.99692 1.7276 9.11311 1.61061C9.22929 1.49363 9.36748 1.40079 9.51969 1.33743C9.67191 1.27407 9.83516 1.24146 10 1.24146C10.1649 1.24146 10.3282 1.27407 10.4804 1.33743C10.6326 1.40079 10.7708 1.49363 10.887 1.61061C11.0032 1.7276 11.0951 1.86641 11.1574 2.01906C11.2197 2.17171 11.2512 2.33518 11.25 2.50005Z" fill="#1B35E0"/>
</svg>
